<svg xmlns="http://www.w3.org/2000/svg" xmlns:xlink="http://www.w3.org/1999/xlink" version="1.1" viewBox="-28 0 260 260" overflow="visible" enable-background="new -28 0 260 260" xml:space="preserve" x="0px" y="0px"><g><path d="M145.577,83.193c22.607,0,41,18.393,41,41c0,22.608-18.393,41-41,41s-41-18.393-41-41   C104.577,101.585,122.97,83.193,145.577,83.193z M89.577,124.193c0,30.878,25.121,56,56,56s56-25.122,56-56s-25.121-56-56-56   S89.577,93.314,89.577,124.193z"/></g><g><g><path d="M142.857,140.271v-13.616c-4.234-1.212-7.34-3.047-9.315-5.504c-1.979-2.456-2.966-5.438-2.966-8.944    c0-3.549,1.117-6.531,3.354-8.944s5.211-3.805,8.928-4.175v-3.24h4.703v3.24c3.445,0.413,6.188,1.588,8.226,3.522    c2.037,1.936,3.339,4.524,3.901,7.767l-8.205,1.098c-0.512-2.569-1.817-4.312-3.922-5.227v12.706    c5.203,1.408,8.75,3.234,10.645,5.476c1.895,2.242,2.842,5.117,2.842,8.627c0,3.92-1.191,7.225-3.572,9.91    c-2.383,2.688-5.687,4.35-9.912,4.985v6.063h-4.703v-5.959c-3.737-0.451-6.775-1.832-9.11-4.146    c-2.338-2.314-3.83-5.584-4.479-9.807l8.467-0.994c0.347,1.721,0.994,3.205,1.945,4.451    C140.631,138.811,141.691,139.714,142.857,140.271z M142.857,106.197c-1.273,0.405-2.281,1.127-3.021,2.167    s-1.108,2.188-1.108,3.443c0,1.148,0.336,2.215,1.012,3.2c0.675,0.985,1.713,1.782,3.117,2.388V106.197z M147.561,140.795    c1.625-0.348,2.957-1.123,3.989-2.326c1.034-1.201,1.552-2.615,1.552-4.24c0-1.451-0.436-2.703-1.308-3.753    c-0.871-1.05-2.28-1.857-4.233-2.42V140.795z"/></g></g><path d="M10,214.245h138.008l-7.5-7.5v22.624c0,7.224-5.877,13.1-13.1,13.1h-96.81c-7.223,0-13.099-5.876-13.099-13.1V30.598  c0-7.222,5.877-13.098,13.1-13.098h96.812c7.222,0,13.098,5.876,13.098,13.098v13.147l7.5-7.5H10v15h138.009h7.5v-7.5V30.598  c0-15.493-12.604-28.098-28.098-28.098H30.599C15.106,2.5,2.5,15.104,2.499,30.598c0,0,0,198.771,0,198.771  c0,15.494,12.605,28.1,28.099,28.1h96.81c15.494,0,28.1-12.605,28.1-28.1v-22.624v-7.5h-7.5H10V214.245z"/></svg>