<svg xmlns="http://www.w3.org/2000/svg" version="1.1" viewBox="5.0 0 82.0 82.0">
 <path d="m71.211 39.27c-0.33594-1.0312-1.2969-1.7266-2.3828-1.7188h-12.566l-3.8789-12h-0.003906c-0.33203-1.0352-1.293-1.7344-2.3789-1.7344s-2.0469 0.69922-2.3789 1.7344l-3.8789 12h-12.57c-1.082 0-2.043 0.69922-2.375 1.7266-0.33594 1.0273 0.027344 2.1562 0.90234 2.793l10.172 7.3906-3.8711 11.949c-0.33984 1.0312 0.027344 2.1641 0.90234 2.8047 0.87891 0.63672 2.0703 0.63672 2.9492-0.003906l10.148-7.3906 10.172 7.3906c0.875 0.64062 2.0625 0.64062 2.9375 0 0.87109-0.64453 1.2383-1.7695 0.91016-2.8008l-3.8906-11.949 10.172-7.3906c0.875-0.64062 1.2422-1.7695 0.91016-2.8008zm-15.492 7.2109c-0.87109 0.64062-1.2344 1.7695-0.89844 2.8008l2.0586 6.3594-5.4102-3.9297c-0.875-0.64063-2.0625-0.64063-2.9375 0l-5.4102 3.9297 2.0586-6.3594c0.33594-1.0312-0.027344-2.1602-0.89844-2.8008l-5.4219-3.9297h6.6914c1.0859 0.003907 2.0469-0.69531 2.3789-1.7305l2.0703-6.3594 2.0703 6.3594c0.33203 1.0352 1.293 1.7344 2.3789 1.7305h6.6914z"/>
 <path d="m77.852 16.77h-55.703c-4.1367 0.007813-7.4922 3.3594-7.5 7.5v40c0 4.1445 3.3594 7.5 7.5 7.5h32.371l14.711 11c0.75781 0.57031 1.7695 0.66016 2.6172 0.23828 0.84766-0.42578 1.3828-1.2891 1.3828-2.2383v-9h4.6289c1.9883 0 3.8984-0.78906 5.3047-2.1953s2.1953-3.3164 2.1953-5.3047v-40c-0.003906-4.1445-3.3672-7.5-7.5078-7.5zm2.5 47.5c0 0.66406-0.26562 1.3008-0.73437 1.7695s-1.1055 0.73047-1.7656 0.73047h-7.1328c-1.3789 0-2.5 1.1211-2.5 2.5v6.4805l-11.379-8.4805c-0.42969-0.32031-0.95312-0.49609-1.4883-0.5h-33.203c-1.3789 0-2.5-1.1172-2.5-2.5v-40c0.007812-1.3789 1.125-2.4922 2.5-2.5h55.703c1.375 0.007813 2.4922 1.1211 2.5 2.5z"/>
</svg>